<svg width="44" height="44" viewBox="0 0 44 44" fill="none" xmlns="http://www.w3.org/2000/svg">
<path d="M27 31V29C27 27.9391 26.5786 26.9217 25.8284 26.1716C25.0783 25.4214 24.0609 25 23 25H15C13.9391 25 12.9217 25.4214 12.1716 26.1716C11.4214 26.9217 11 27.9391 11 29V31" stroke="#25282B" stroke-width="2" stroke-linecap="round" stroke-linejoin="round"/>
<path d="M19 21C21.2091 21 23 19.2091 23 17C23 14.7909 21.2091 13 19 13C16.7909 13 15 14.7909 15 17C15 19.2091 16.7909 21 19 21Z" stroke="#25282B" stroke-width="2" stroke-linecap="round" stroke-linejoin="round"/>
<path d="M33 30.9999V28.9999C32.9993 28.1136 32.7044 27.2527 32.1614 26.5522C31.6184 25.8517 30.8581 25.3515 30 25.1299" stroke="#25282B" stroke-width="2" stroke-linecap="round" stroke-linejoin="round"/>
<path d="M26 13.1299C26.8604 13.3502 27.623 13.8506 28.1676 14.5522C28.7122 15.2538 29.0078 16.1167 29.0078 17.0049C29.0078 17.8931 28.7122 18.756 28.1676 19.4576C27.623 20.1592 26.8604 20.6596 26 20.8799" stroke="#25282B" stroke-width="2" stroke-linecap="round" stroke-linejoin="round"/>
</svg>
