<svg width="15" height="15" viewBox="0 0 15 15" fill="none" xmlns="http://www.w3.org/2000/svg">
<rect width="15" height="15" rx="7.5" fill="#DFE1E6"/>
<path d="M8.72466 7.51215L9.99984 6.23228C10.3348 5.89608 10.3332 5.35262 9.99618 5.01843C9.6592 4.68425 9.11447 4.68588 8.7795 5.02208L7.51053 6.29571L6.21997 5.00269C5.8847 4.66678 5.33997 4.66563 5.00328 5.00011C4.66658 5.3346 4.66543 5.87805 5.0007 6.21396L6.29748 7.51321L5.02878 8.78658C4.69381 9.12278 4.69545 9.66624 5.03244 10.0004C5.36942 10.3346 5.91416 10.333 6.24913 9.99678L7.51161 8.72965L8.75017 9.97057C9.08543 10.3065 9.63017 10.3076 9.96686 9.97315C10.3036 9.63866 10.3047 9.0952 9.96944 8.7593L8.72466 7.51215Z" fill="#42526E"/>
</svg>
