<svg width="15" height="15" viewBox="0 0 15 15" fill="none" xmlns="http://www.w3.org/2000/svg">
<rect width="15" height="15" rx="7.5" fill="#DFE1E6"/>
<path d="M7.51838 3.83002H7.48117C6.46376 3.83002 5.63978 4.64127 5.63978 5.64299V6.57694H6.56977V5.65214C6.56977 5.15129 6.98177 4.74566 7.49048 4.74566H7.50907C8.01778 4.74566 8.42978 5.15129 8.42978 5.65214V6.57694H9.35977V5.64299C9.35977 4.64127 8.53579 3.83002 7.51838 3.83002ZM5.63978 6.57694H6.56977V7.49258H5.63978V6.57694ZM8.42978 6.57694H9.35977V7.49258H8.42978V6.57694ZM8.42996 7.49258H6.56996H5.63996C5.1266 7.49258 4.70996 7.90279 4.70996 8.40822V9.78168C4.70996 10.5402 5.32844 11.1551 6.08929 11.1551H8.91063C9.67242 11.1551 10.29 10.5455 10.29 9.78168V8.40822C10.29 7.90279 9.87332 7.49258 9.35996 7.49258H8.42996Z" fill="#42526E"/>
</svg>
